<?xml version="1.0" encoding="utf-8"?>
<!-- Generator: Adobe Illustrator 25.0.0, SVG Export Plug-In . SVG Version: 6.00 Build 0)  -->
<svg version="1.1" id="Layer_2" xmlns="http://www.w3.org/2000/svg" xmlns:xlink="http://www.w3.org/1999/xlink" x="0px" y="0px"
	 viewBox="0 0 68 79" style="enable-background:new 0 0 68 79;" xml:space="preserve">
<style type="text/css">
	.st0{fill:#0D1B4B;}
	.st1{fill:#EC1C24;}
	.st2{fill:#D1AA67;}
</style>
<g>
	<g>
		<path class="st0" d="M40.96,57.98c3.1,0,6.32-1.56,8.62-4.85c0.88-1.22,1.37-2.9,1.59-3.83c0.32-1.38,0.5-2.87,0.51-4.47h0v-24.7
			H40.6v24.92c0,5.49-5.4,7.39-9.13,5.69c-0.56-0.27-0.58,0.13-0.4,0.54C33.33,56.07,37.24,57.98,40.96,57.98"/>
		<path class="st1" d="M40.34,59.73c-5,0-10.32-3.55-12.31-11.2c-0.33-1.32-0.81-4.25-0.81-6.71c0-0.25,0-0.6,0-0.6V20.13H16.32
			v25.12h0C16.41,61.28,33.2,66.13,43.41,59.8c0.64-0.34,0.66-0.76-0.16-0.47C42.29,59.6,41.31,59.73,40.34,59.73
			C40.34,59.73,40.34,59.73,40.34,59.73"/>
	</g>
	<path class="st2" d="M68,17l-0.01-5.36h-0.01l0-0.22h-4.85V7.6l-0.5,0.03c-1,0.08-2.02,0.11-3.04,0.11
		c-14.13,0-25.24-7.34-25.35-7.41L34,0.16l-0.26,0.17c-0.1,0.07-11.22,7.41-25.35,7.41c-1.02,0-2.04-0.03-3.04-0.11L4.85,7.6v3.82
		H0.01L0,17v25.81c0,17.57,25.71,32.4,32.59,35.42l1.38,0.61l1.39-0.61c6.89-3.02,32.63-17.86,32.63-35.42L68,17z M63.51,42.81
		c0,14.55-19.45,28.78-29.19,33.04l-0.35,0.15l-0.35-0.15C23.91,71.6,4.48,57.38,4.48,42.81V17h0.07h4.33v-3.34
		c0.77,0.05,1.54,0.06,2.32,0.06c11.77,0,21.24-5.62,22.79-6.6c1.54,0.98,11.01,6.6,22.78,6.6c0.78,0,1.55-0.02,2.32-0.06V17h4.34
		h0.08V42.81z"/>
</g>
</svg>
